#define itemPhasingDevice_width 16
#define itemPhasingDevice_height 16
static unsigned char itemPhasingDevice_bits[] = {
   0x00, 0x00, 0x00, 0x40, 0x00, 0x20, 0x00, 0x00, 0x00, 0x08, 0x00, 0x04,
   0xc0, 0x00, 0x40, 0x03, 0x80, 0x0c, 0x80, 0x04, 0x20, 0x03, 0x10, 0x01,
   0x00, 0x00, 0x04, 0x00, 0x02, 0x00, 0x00, 0x00};
