#define itemHyperJump_width 16
#define itemHyperJump_height 16
static unsigned char itemHyperJump_bits[] = {
   0x00, 0x00, 0x00, 0x00, 0x00, 0x04, 0x00, 0x04, 0x00, 0x0a, 0x00, 0x0a,
   0x00, 0x11, 0x00, 0x1f, 0x20, 0x00, 0x20, 0x00, 0x50, 0x00, 0x70, 0x00,
   0x00, 0x00, 0x00, 0x00, 0x00, 0x00, 0x00, 0x00};
