#define itemWideangleShot_width 16
#define itemWideangleShot_height 16
static char itemWideangleShot_bits[] = {
   0x80, 0x01, 0x80, 0x01, 0x00, 0x00, 0x00, 0x00, 0x00, 0x00, 0x80, 0x01,
   0x80, 0x01, 0x00, 0x00, 0x00, 0x00, 0x80, 0x01, 0xc0, 0x03, 0x40, 0x02,
   0x60, 0x06, 0x60, 0x06, 0x30, 0x0c, 0x30, 0x0c};
