STARTFONT 2.1
COMMENT This is a custom-made font for for making
COMMENT maps for the xpilot game. This one is in 7x7 pixel size.
FONT map-7
SIZE 1 1 1
FONTBOUNDINGBOX 7 7 0 0
STARTPROPERTIES 3
FONT_ASCENT 7
FONT_DESCENT 0
DEFAULT_CHAR 36
ENDPROPERTIES 
CHARS 29
STARTCHAR Others
COMMENT This is the default glyph. All characters not defined will be
COMMENT represented by this glyph (X).
ENCODING 36
SWIDTH 350 0 
DWIDTH 7 0 
BBX 7 7 0 0
BITMAP 
82
44
28
10
28
44
82
ENDCHAR
STARTCHAR PosGrav
COMMENT A positive (repulsive) gravitational field.
COMMENT Represented by and typed as <+>.
ENCODING 43
SWIDTH 350 0
DWIDTH 7 0
BBX 7 7 0 0
BITMAP 
00
10
10
7C
10
10
00
ENDCHAR
STARTCHAR NegGrav
COMMENT A negative (attractive) gravitational field.
COMMENT Represented by and typed as <->.
ENCODING 45
SWIDTH 350 0 
DWIDTH 7 0 
BBX 7 7 0 0
BITMAP 
00
00
00
7C
00
00
00
ENDCHAR
STARTCHAR Slash
COMMENT Included for clarity when recieving messages.
ENCODING 47
SWIDTH 350 0 
DWIDTH 7 0 
BBX 7 7 0 0
BITMAP 
02
04
08
10
20
40
80
ENDCHAR
STARTCHAR Dot
COMMENT Included for clarity when recieving messages.
ENCODING 46
SWIDTH 350 0
DWIDTH 7 0
BBX 7 7 0 0
BITMAP
00
00
00
00
00
06
06
ENDCHAR
STARTCHAR Upperleft 
COMMENT The triangle below a line between the upper right and lower left 
COMMENT corners of the gamesquare. Typed as 'q'
ENCODING 113 
SWIDTH 350 0 
DWIDTH 7 0 
BBX 7 7 0 0
BITMAP 
02
06
0E
1E
3E
7E
FE
ENDCHAR 
STARTCHAR Upperright 
COMMENT The triangle below a line between the upper left and lower right
COMMENT corners of the gamesquare. Typed as 'w'
ENCODING 119 
SWIDTH 350 0 
DWIDTH 7 0 
BBX 7 7 0 0 
BITMAP 
80
C0
E0
F0
F8
FC
FE
ENDCHAR 
STARTCHAR Lowerleft 
COMMENT The triangle above a line between the upper left and lower right
COMMENT corners of the gamesquare. Typed as 'a'
ENCODING 97 
SWIDTH 350 0 
DWIDTH 7 0 
BBX 7 7 0 0 
BITMAP 
FE
7E
3E
1E
0E
06
02
ENDCHAR 
STARTCHAR Lowerright
COMMENT The triangle above a line between the upper right and lower left
COMMENT corners of the gamesquare. Typed as 's'
ENCODING 115 
SWIDTH 350 0 
DWIDTH 7 0 
BBX 7 7 0 0 
BITMAP
FE
FC
F8
F0
E0
C0
80
ENDCHAR 
STARTCHAR Upcannon 
COMMENT A cannon pointing upwards. Typed as 'r'
ENCODING 114
SWIDTH 350 0 
DWIDTH 7 0 
BBX 7 7 0 0 
BITMAP 
00
00
00
10
28
44
82
ENDCHAR
STARTCHAR Downcannon
COMMENT Typed as 'c'
ENCODING 99 
SWIDTH 350 0 
DWIDTH 7 0 
BBX 7 7 0 0
BITMAP 
82
44
28
10
00
00
00
ENDCHAR 
STARTCHAR Rightcannon
COMMENT Typed as 'f'
ENCODING 102 
SWIDTH 350 0 
DWIDTH 7 0 
BBX 7 7 0 0 
BITMAP
80
40
20
10
20
40
80
ENDCHAR 
STARTCHAR Leftcannon
COMMENT typed as 'd'
ENCODING 100 
SWIDTH 350 0 
DWIDTH 7 0 
BBX 7 7 0 0 
BITMAP
02
04
08
10
08
04
02
ENDCHAR 
STARTCHAR Square
COMMENT The building block of most structures, a filled square.
COMMENT Typed as 'x'
ENCODING 120 
SWIDTH 350 0 
DWIDTH 7 0 
BBX 7 7 0 0 
BITMAP 
FE
FE
FE
FE
FE
FE
FE
ENDCHAR 
STARTCHAR Homebase
COMMENT The place your stout spaceship starts from. The number of these
COMMENT characters determine the number of players allowed on the map.
COMMENT represented by an arrow pointing down, Typed as an asterisk, '*'
ENCODING 42
SWIDTH 350 0 
DWIDTH 7 0 
BBX 7 7 0 0 
BITMAP 
10
10
10
10
44
28
10
ENDCHAR
STARTCHAR Fuel
COMMENT Your highly valued, but oh so scarce energy stations. Represented
COMMENT by an outline of a square, Typed as F (uppercase 'F')
ENCODING 70 
SWIDTH 350 0 
DWIDTH 7 0 
BBX 7 7 0 0 
BITMAP 
FE
82
82
82
82
82
FE
ENDCHAR 
STARTCHAR Open
COMMENT For filling in all the places where the flying takes place.
COMMENT Marked with a dot in the centre to make counting and checking
COMMENT against errant <tab>'s easy. Typed as <space>
ENCODING 32 
SWIDTH 350 0 
DWIDTH 7 0 
BBX 7 7 0 0 
BITMAP 
00
00
00
10
00
00
00
ENDCHAR
STARTCHAR Postnil
COMMENT The posts in race are all the same in these fonts. On the board they
COMMENT are lighted in their numerical order, starting and finishing with zero.
COMMENT Naturally typed as numerals. (All ten must be included.)
ENCODING 48
SWIDTH 350 0 
DWIDTH 7 0 
BBX 7 7 0 0
BITMAP
10
28
44
82
44
28
10
ENDCHAR
STARTCHAR Postone
ENCODING 49
SWIDTH 350 0 
DWIDTH 7 0 
BBX 7 7 0 0
BITMAP
10
28
44
82
44
28
10
ENDCHAR
STARTCHAR Posttwo
ENCODING 50
SWIDTH 350 0 
DWIDTH 7 0 
BBX 7 7 0 0
BITMAP
10
28
44
82
44
28
10
ENDCHAR
STARTCHAR Postthree
ENCODING 51
SWIDTH 350 0 
DWIDTH 7 0 
BBX 7 7 0 0
BITMAP
10
28
44
82
44
28
10
ENDCHAR
STARTCHAR Postfour
ENCODING 52
SWIDTH 350 0 
DWIDTH 7 0 
BBX 7 7 0 0
BITMAP
10
28
44
82
44
28
10
ENDCHAR
STARTCHAR Postfive
ENCODING 53
SWIDTH 350 0 
DWIDTH 7 0 
BBX 7 7 0 0
BITMAP
10
28
44
82
44
28
10
ENDCHAR
STARTCHAR Postsix
ENCODING 54
SWIDTH 350 0 
DWIDTH 7 0 
BBX 7 7 0 0
BITMAP
10
28
44
82
44
28
10
ENDCHAR
STARTCHAR Postseven
ENCODING 55
SWIDTH 350 0 
DWIDTH 7 0 
BBX 7 7 0 0
BITMAP
10
28
44
82
44
28
10
ENDCHAR
STARTCHAR Posteight
ENCODING 56
SWIDTH 350 0 
DWIDTH 7 0 
BBX 7 7 0 0
BITMAP
10
28
44
82
44
28
10
ENDCHAR
STARTCHAR Postnine
ENCODING 57
SWIDTH 350 0 
DWIDTH 7 0 
BBX 7 7 0 0
BITMAP
10
28
44
82
44
28
10
ENDCHAR
STARTCHAR counterclockwise
COMMENT a curling forcefield with a counterclockwise curl
COMMENT typed as '<' represented by a curling arrow
ENCODING 60
SWIDTH 350 0
DWIDTH 7 0
BBX 7 7 0 0
BITMAP
00
B8
C4
E2
02
02
00
ENDCHAR
STARTCHAR clockwise
COMMENT a curling forcefield with a clockwise curl
COMMENT typed as '>' represented by a curling arrow 
ENCODING 62
SWIDTH 350 0
DWIDTH 7 0
BBX 7 7 0 0
BITMAP
00
3A
46
8E
80
80
00
ENDCHAR
ENDFONT
