STARTFONT 2.1
COMMENT This is a custom-made font for the xpilot game
FONT map-9
SIZE 1 1 1
FONTBOUNDINGBOX 9 9 0 0
STARTPROPERTIES 3
FONT_ASCENT 9
FONT_DESCENT 0
DEFAULT_CHAR 36
ENDPROPERTIES 
CHARS 29
STARTCHAR Others
ENCODING 36
SWIDTH 350 0 
DWIDTH 9 0 
BBX 9 9 0 0
BITMAP 
8080
4100
2200
1400
0800
1400
2200
4100
8080
ENDCHAR
STARTCHAR PosGrav
ENCODING 43
SWIDTH 350 0
DWIDTH 9 0
BBX 9 9 0 0
BITMAP 
0800
0800
0800
0800
FF80
0800
0800
0800
0800
ENDCHAR
STARTCHAR NegGrav 
ENCODING 45
SWIDTH 350 0 
DWIDTH 9 0 
BBX 9 9 0 0
BITMAP 
0000
0000
0000
0000
FF80
0000
0000
0000
0000
ENDCHAR
STARTCHAR Slash
ENCODING 47
SWIDTH 350 0 
DWIDTH 9 0 
BBX 9 9 0 0
BITMAP 
0080
0100
0200
0400
0800
1000
2000
4000
8000
ENDCHAR
STARTCHAR Dot
ENCODING 46
SWIDTH 350 0
DWIDTH 9 0
BBX 9 9 0 0
BITMAP
0000
0000
0000
0000
0000
0000
0000
0180
0180
ENDCHAR
STARTCHAR Upperleft 
ENCODING 113 
SWIDTH 350 0 
DWIDTH 9 0 
BBX 9 9 0 0
BITMAP 
0080
0180
0380
0780
0F80
1F80
3F80
7F80
FF80
ENDCHAR 
STARTCHAR Upperright 
ENCODING 119 
SWIDTH 350 0 
DWIDTH 9 0 
BBX 9 9 0 0 
BITMAP 
8000
C000
E000
F000
F800
FC00
FE00
FF00
FF80
ENDCHAR 
STARTCHAR Lowerleft 
ENCODING 97 
SWIDTH 350 0 
DWIDTH 9 0 
BBX 9 9 0 0 
BITMAP 
FF80
7F80
3F80
1F80
0F80
0780
0380
0180
0080
ENDCHAR 
STARTCHAR Lowerright 
ENCODING 115 
SWIDTH 350 0 
DWIDTH 9 0 
BBX 9 9 0 0 
BITMAP 
FF80
FF00
FE00
FC00
F800
F000
E000
C000
8000
ENDCHAR 
STARTCHAR Upcannon 
ENCODING 114
SWIDTH 350 0 
DWIDTH 9 0 
BBX 9 9 0 0 
BITMAP 
0000
0000
0000
0000
0800
1400
2200
4100
8080
ENDCHAR
STARTCHAR Downcannon 
ENCODING 99 
SWIDTH 350 0 
DWIDTH 9 0 
BBX 9 9 0 0
BITMAP 
8080
4100
2200
1400
0800
0000
0000
0000
0000
ENDCHAR 
STARTCHAR Rightcannon 
ENCODING 102 
SWIDTH 350 0 
DWIDTH 9 0 
BBX 9 9 0 0 
BITMAP 
8000
4000
2000
1000
0800
1000
2000
4000
8000
ENDCHAR 
STARTCHAR Leftcannon 
ENCODING 100 
SWIDTH 350 0 
DWIDTH 9 0 
BBX 9 9 0 0 
BITMAP
0080
0100
0200
0400
0800
0400
0200
0100
0080
ENDCHAR 
STARTCHAR Square 
ENCODING 120 
SWIDTH 350 0 
DWIDTH 9 0 
BBX 9 9 0 0 
BITMAP 
FF80
FF80
FF80
FF80
FF80
FF80
FF80
FF80
FF80
ENDCHAR 
STARTCHAR Homebase 
ENCODING 42
SWIDTH 350 0 
DWIDTH 9 0 
BBX 9 9 0 0 
BITMAP 
0800
0800
0800
0800
0800
4900
2A00
1C00
0800
ENDCHAR
STARTCHAR Fuel 
ENCODING 70 
SWIDTH 350 0 
DWIDTH 9 0 
BBX 9 9 0 0 
BITMAP 
FF80
8080
8080
8080
8080
8080
8080
8080
FF80
ENDCHAR 
STARTCHAR Open 
ENCODING 32 
SWIDTH 350 0 
DWIDTH 9 0 
BBX 9 9 0 0 
BITMAP 
0000
0000
0000
0000
0800
0000
0000
0000
0000
ENDCHAR
STARTCHAR Postnil
ENCODING 48
SWIDTH 350 0
DWIDTH 9 0
BBX 9 9 0 0
BITMAP
0800
1400
2200
4100
8080
4100
2200
1400
0800
ENDCHAR
STARTCHAR Postone
ENCODING 49
SWIDTH 350 0
DWIDTH 9 0
BBX 9 9 0 0
BITMAP
0800
1400
2200
4100
8080
4100
2200
1400
0800
ENDCHAR
STARTCHAR Posttwo
ENCODING 50
SWIDTH 350 0
DWIDTH 9 0
BBX 9 9 0 0
BITMAP
0800
1400
2200
4100
8080
4100
2200
1400
0800
ENDCHAR
STARTCHAR Postthree
ENCODING 51
SWIDTH 350 0
DWIDTH 9 0
BBX 9 9 0 0
BITMAP
0800
1400
2200
4100
8080
4100
2200
1400
0800
ENDCHAR
STARTCHAR Postfour
ENCODING 52
SWIDTH 350 0
DWIDTH 9 0
BBX 9 9 0 0
BITMAP
0800
1400
2200
4100
8080
4100
2200
1400
0800
ENDCHAR
STARTCHAR Postfive
ENCODING 53
SWIDTH 350 0
DWIDTH 9 0
BBX 9 9 0 0
BITMAP
0800
1400
2200
4100
8080
4100
2200
1400
0800
ENDCHAR
STARTCHAR Postsix
ENCODING 54
SWIDTH 350 0
DWIDTH 9 0
BBX 9 9 0 0
BITMAP
0800
1400
2200
4100
8080
4100
2200
1400
0800
ENDCHAR
STARTCHAR Postseven
ENCODING 55
SWIDTH 350 0
DWIDTH 9 0
BBX 9 9 0 0
BITMAP
0800
1400
2200
4100
8080
4100
2200
1400
0800
ENDCHAR
STARTCHAR Posteight
ENCODING 56
SWIDTH 350 0
DWIDTH 9 0
BBX 9 9 0 0
BITMAP
0800
1400
2200
4100
8080
4100
2200
1400
0800
ENDCHAR
STARTCHAR Postnine
ENCODING 57
SWIDTH 350 0
DWIDTH 9 0
BBX 9 9 0 0
BITMAP
0800
1400
2200
4100
8080
4100
2200
1400
0800
ENDCHAR
STARTCHAR counterclockwise
COMMENT a curling forcefield with a counterclockwise curl
COMMENT typed as '<' represented by a curling arrow
ENCODING 60
SWIDTH 350 0
DWIDTH 9 0
BBX 9 9 0 0
BITMAP
9C00
A200
C100
F080
0080
0080
4100
2200
1C00
ENDCHAR
STARTCHAR clockwise
COMMENT a curling forcefield with a clockwise curl
COMMENT typed as '>' represented by a curling arrow 
ENCODING 62
SWIDTH 350 0
DWIDTH 9 0
BBX 9 9 0 0
BITMAP
1C80
2280
4180
8780
8000
8000
4100
2200
1C00
ENDCHAR
ENDFONT
